<?xml version="1.0" standalone="no"?>
<!DOCTYPE svg PUBLIC "-//W3C//DTD SVG 20010904//EN"
 "http://www.w3.org/TR/2001/REC-SVG-20010904/DTD/svg10.dtd">
<svg version="1.0" xmlns="http://www.w3.org/2000/svg"
 width="360.000000pt" height="266.000000pt" viewBox="0 0 360.000000 266.000000"
 preserveAspectRatio="xMidYMid meet">

<g transform="translate(0.000000,266.000000) scale(0.100000,-0.100000)"
fill="#000000" stroke="none">
<path d="M580 1573 c0 -160 -4 -279 -10 -297 -6 -17 -39 -125 -74 -241 l-63
-210 60 -3 c33 -2 61 -1 64 2 2 2 18 48 34 102 16 54 33 102 38 107 6 6 32
-35 65 -102 l56 -111 75 0 c87 0 85 -10 16 128 l-41 81 116 3 c64 2 117 1 119
-2 1 -3 -8 -36 -20 -75 -12 -38 -26 -85 -29 -102 l-8 -33 69 0 69 0 28 105 29
104 173 3 c117 2 174 0 174 -8 0 -5 -11 -48 -25 -95 -13 -46 -25 -90 -25 -96
0 -9 21 -13 70 -13 53 0 70 3 70 14 0 7 7 36 15 62 8 27 19 68 25 92 10 39 13
42 45 42 l35 0 0 -105 0 -105 60 0 61 0 67 105 67 105 49 0 c42 0 47 -2 41
-17 -3 -10 -12 -49 -20 -88 -7 -38 -16 -78 -20 -87 -6 -16 0 -18 63 -18 l69 0
11 42 c6 24 17 71 24 105 7 34 16 62 21 62 4 1 22 1 41 1 32 0 33 -1 39 -50
10 -83 55 -135 138 -161 45 -14 227 -12 309 4 l65 12 24 98 23 97 79 0 79 0 0
405 0 405 -285 0 -285 0 0 -258 0 -258 -25 -22 -25 -22 0 280 0 280 -287 0
-288 0 3 -235 3 -235 -26 0 -25 0 0 235 0 235 -290 0 -290 0 0 -235 0 -235
-25 0 -25 0 0 235 0 235 -285 0 -285 0 0 -267z m550 9 l0 -249 -36 -119 c-20
-65 -38 -129 -41 -141 -5 -22 -9 -23 -134 -23 -125 0 -130 1 -138 23 -8 19 7
38 127 160 l137 137 -90 -1 -90 -1 -99 -109 c-55 -60 -101 -107 -102 -106 -2
2 19 81 45 167 6 19 11 38 11 42 0 5 -29 8 -65 8 l-65 0 0 223 c0 123 3 227 7
230 3 4 125 7 270 7 l263 0 0 -248z m628 16 l2 -228 -70 0 c-38 0 -70 -2 -70
-4 0 -2 -20 -73 -44 -157 l-44 -154 -69 -2 c-57 -2 -65 0 -48 10 69 43 105
107 105 190 0 93 -41 117 -202 117 l-98 0 0 230 0 230 268 -2 267 -3 3 -227z
m622 -60 c0 -274 -2 -295 -20 -318 -10 -14 -29 -58 -42 -97 l-23 -73 -39 0
c-37 0 -38 1 -31 28 4 15 17 79 30 142 13 64 27 123 30 133 7 15 -3 17 -108
17 l-115 0 -99 -156 c-54 -86 -102 -157 -108 -157 -10 -2 -20 735 -10 760 3
10 66 13 270 13 l265 0 0 -292z m625 -98 l0 -385 -68 -3 c-62 -3 -68 -1 -64
15 3 10 8 30 11 46 l6 27 -134 0 c-147 0 -135 5 -150 -62 -6 -27 -9 -28 -71
-28 -64 0 -65 0 -65 28 0 34 39 117 74 159 59 70 189 78 203 12 l6 -29 78 0
c76 0 79 1 85 25 8 34 -3 75 -29 103 -60 64 -267 69 -384 8 l-33 -17 0 246 0
245 268 -2 267 -3 0 -385z m-1617 -192 c4 -37 -24 -93 -54 -107 -14 -6 -48
-11 -76 -11 -42 0 -49 3 -44 16 3 9 9 28 12 42 3 15 10 42 16 60 l10 33 66 -3
c65 -3 67 -4 70 -30z m342 -103 l0 -95 -31 0 c-24 0 -29 4 -25 18 3 9 15 52
27 95 12 42 24 77 26 77 1 0 3 -43 3 -95z m371 -5 l-18 -85 -43 -3 c-43 -3
-43 -3 -28 20 8 13 34 54 58 91 23 37 44 67 45 65 2 -2 -5 -41 -14 -88z m609
-125 c0 -11 -5 -37 -10 -57 -10 -34 -14 -37 -55 -44 -25 -3 -61 -3 -81 1 -47
8 -94 54 -94 92 l0 28 120 0 c113 0 120 -1 120 -20z"/>
</g>
</svg>
